<?xml version="1.0" encoding="utf-8"?>
<!-- Generator: Adobe Illustrator 26.0.0, SVG Export Plug-In . SVG Version: 6.00 Build 0)  -->
<svg version="1.0" id="Слой_1" xmlns="http://www.w3.org/2000/svg" xmlns:xlink="http://www.w3.org/1999/xlink" x="0px" y="0px"
	 width="16px" height="16px" viewBox="0 0 16 16" enable-background="new 0 0 16 16" xml:space="preserve">
<g>
	<radialGradient id="SVGID_1_" cx="8" cy="8.041" r="8" gradientUnits="userSpaceOnUse">
		<stop  offset="0" style="stop-color:#404084"/>
		<stop  offset="0.2915" style="stop-color:#424187"/>
		<stop  offset="0.4993" style="stop-color:#474490"/>
		<stop  offset="0.591" style="stop-color:#4B4797"/>
		<stop  offset="0.6902" style="stop-color:#4D4A9B"/>
		<stop  offset="0.7972" style="stop-color:#5452A8"/>
		<stop  offset="0.8768" style="stop-color:#5C5CB7"/>
		<stop  offset="0.95" style="stop-color:#6B6BCB"/>
		<stop  offset="1" style="stop-color:#7171D3"/>
	</radialGradient>
	<path fill="url(#SVGID_1_)" d="M11.6,16H4.4C2,16,0,14.1,0,11.7V4.4C0,2,2,0,4.4,0h7.3C14,0,16,2,16,4.4v7.3C16,14.1,14,16,11.6,16
		z"/>
	<path fill="#FFFFFF" d="M11.5,5.5H5.9C5.5,5.5,5.5,5,5.8,4.9h5.7l0.2,0c0,0,0.1,0,0.1-0.1c-0.1-0.7-0.9-1.2-1.6-1.1h-0.1l-5.5,1
		c-0.1,0-0.3,0-0.3,0.1c-0.9,0.2-1.1,1-1.1,1.4v0.5c0,0.1,0,0.1,0,0.2V11c0,0.8,0.6,1.4,1.4,1.4h7c0.8,0,1.4-0.6,1.4-1.4V6.8
		C12.9,6.1,12.3,5.5,11.5,5.5z M10.7,9.5c-0.6,0.3-1.2-0.3-0.9-0.9c0.1-0.1,0.2-0.2,0.3-0.3C10.7,8,11.3,8.7,11,9.2
		C11,9.4,10.9,9.5,10.7,9.5z"/>
</g>
</svg>
